<svg width="16" height="16" viewBox="0 0 16 16" fill="none" xmlns="http://www.w3.org/2000/svg">
<path d="M9.27405 1.4645C8.76158 0.401158 7.23966 0.401156 6.7272 1.4645L5.38379 4.25198C5.37375 4.27281 5.35184 4.29048 5.32264 4.2943L2.22998 4.69793C1.06016 4.85061 0.571795 6.29237 1.44383 7.11199L3.70622 9.23838C3.72465 9.2557 3.73121 9.27886 3.72729 9.29982L3.15932 12.3368C2.93929 13.5133 4.18845 14.3835 5.21892 13.8297L7.96056 12.3565C7.98531 12.3432 8.01593 12.3432 8.04069 12.3565L10.7823 13.8297C11.8128 14.3835 13.062 13.5133 12.8419 12.3368L12.274 9.29982C12.27 9.27886 12.2766 9.2557 12.295 9.23838L14.5574 7.11199C15.4294 6.29237 14.9411 4.85061 13.7713 4.69793L10.6786 4.2943C10.6494 4.29049 10.6275 4.27281 10.6175 4.25198L9.27405 1.4645Z" fill="url(#paint0_linear_17550_2132)"/>
<defs>
<linearGradient id="paint0_linear_17550_2132" x1="2.67486" y1="0.666992" x2="13.3264" y2="14.0006" gradientUnits="userSpaceOnUse">
<stop stop-color="#06C3C5"/>
<stop offset="0.307692" stop-color="#6CD4D4"/>
<stop offset="0.778846" stop-color="#00BDBF"/>
<stop offset="1" stop-color="#035E5F"/>
</linearGradient>
</defs>
</svg>
